<svg width="22" height="22" viewBox="0 0 22 22" fill="none" xmlns="http://www.w3.org/2000/svg">
<path opacity="0.4" d="M10.3787 13.2219L10.3817 13.2245L9.67853 14.0155C9.61241 14.0895 9.53139 14.1486 9.44081 14.1889C9.35023 14.2293 9.25212 14.2501 9.15294 14.2499H8.06251V15.4218C8.06251 15.6083 7.98843 15.7871 7.85657 15.919C7.72471 16.0508 7.54586 16.1249 7.35938 16.1249H6.18751V17.2968C6.18751 17.4833 6.11343 17.6621 5.98157 17.794C5.84971 17.9258 5.67086 17.9999 5.48438 17.9999H2.20313C2.01665 17.9999 1.8378 17.9258 1.70594 17.794C1.57408 17.6621 1.5 17.4833 1.5 17.2968V15.0116C1.49978 14.9192 1.51777 14.8276 1.55296 14.7422C1.58815 14.6567 1.63984 14.579 1.70508 14.5136L6.4462 9.77246L6.44298 9.76221C6.73061 10.6376 7.24727 11.4201 7.93934 12.0284C8.63141 12.6368 9.47367 13.0489 10.3787 13.2219Z" fill="black" fill-opacity="0.5"/>
<path d="M11.3438 3C10.3239 3 9.32704 3.30241 8.4791 3.86898C7.63115 4.43556 6.97026 5.24086 6.58 6.18304C6.18973 7.12522 6.08762 8.16197 6.28658 9.16218C6.48553 10.1624 6.97662 11.0812 7.69773 11.8023C8.41885 12.5234 9.33761 13.0145 10.3378 13.2134C11.338 13.4124 12.3748 13.3103 13.317 12.92C14.2592 12.5297 15.0645 11.8689 15.631 11.0209C16.1976 10.173 16.5 9.17606 16.5 8.15625C16.5 6.78873 15.9568 5.47722 14.9898 4.51023C14.0228 3.54325 12.7113 3 11.3438 3V3ZM12.75 8.15625C12.4719 8.15625 12.2 8.07377 11.9687 7.91925C11.7375 7.76473 11.5572 7.54511 11.4508 7.28815C11.3444 7.03119 11.3165 6.74844 11.3708 6.47565C11.425 6.20287 11.559 5.9523 11.7556 5.75563C11.9523 5.55896 12.2029 5.42503 12.4757 5.37077C12.7484 5.31651 13.0312 5.34436 13.2882 5.45079C13.5451 5.55723 13.7647 5.73747 13.9193 5.96873C14.0738 6.19999 14.1563 6.47187 14.1563 6.75C14.1563 7.12296 14.0081 7.48065 13.7444 7.74437C13.4807 8.00809 13.123 8.15625 12.75 8.15625Z" fill="black" fill-opacity="0.5"/>
</svg>
